<svg width="22" height="22" viewBox="0 0 22 22" fill="none" xmlns="http://www.w3.org/2000/svg">
<path d="M3.64258 21.7271C2.57454 21.7271 1.76937 21.4587 1.22705 20.9219C0.684733 20.3906 0.413574 19.5938 0.413574 18.5312V6.20459C0.413574 5.14209 0.684733 4.34245 1.22705 3.80566C1.76937 3.26888 2.57454 3.00049 3.64258 3.00049H15.1309L13.6533 4.46973H3.66748C3.09196 4.46973 2.64925 4.62191 2.33936 4.92627C2.03499 5.23063 1.88281 5.68164 1.88281 6.2793V18.4482C1.88281 19.0459 2.03499 19.4969 2.33936 19.8013C2.64925 20.1056 3.09196 20.2578 3.66748 20.2578H16.127C16.5697 20.2578 16.9349 20.1056 17.2227 19.8013C17.516 19.4969 17.6626 19.0459 17.6626 18.4482V8.56201L19.1318 7.09277V18.5312C19.1318 19.5882 18.8717 20.3851 18.3516 20.9219C17.8369 21.4587 17.1037 21.7271 16.1519 21.7271H3.64258ZM7.72656 14.688C7.63802 14.7267 7.55778 14.7074 7.48584 14.6299C7.4139 14.5469 7.3973 14.4666 7.43604 14.3892L8.34082 12.5215L18.3184 2.53564L19.6382 3.84717L9.65234 13.833L7.72656 14.688ZM20.3936 3.1084L19.0737 1.78027L19.8042 1.05811C19.9702 0.89209 20.1584 0.803548 20.3687 0.79248C20.5845 0.775879 20.7699 0.845052 20.9248 1L21.1323 1.20752C21.2983 1.37354 21.3786 1.56445 21.373 1.78027C21.373 1.99056 21.2873 2.18424 21.1157 2.36133L20.3936 3.1084Z" fill="black"/>
</svg>
